<svg height="256" viewBox="0 0 256 256" width="256" xmlns="http://www.w3.org/2000/svg"><g fill="none" fill-rule="evenodd"><path d="m0 0h256v256h-256z" fill="#000"/><g fill-rule="nonzero"><path d="m128 233c-57.9898987 0-105-47.010101-105-105 0-57.9898987 47.0101013-105 105-105 57.989899 0 105 47.0101013 105 105 0 57.989899-47.010101 105-105 105z" fill="#63a2d3"/><g fill="#fff"><g transform="translate(74 78)"><path d="m86.5748714 0h-84.10123076c-1.36540697 0-2.47364064 1.10491633-2.47364064 2.46623613v73.98477197c0 1.3613198 1.10823367 2.4662361 2.47364064 2.4662361h84.10123076c1.365407 0 2.4736406-1.1049163 2.4736406-2.4662361v-73.98477197c0-1.361551-1.1082336-2.46623613-2.4736406-2.46623613zm-2.4736406 73.9847719h-79.15394953v-69.05253084h79.15394953z"/><path d="m88.7860449 75.3430854-27.2086202-54.2503733c-.4106813-.8137544-1.2318119-1.336453-2.1470909-1.3611892-.9349898-.0395319-1.7612221.4538068-2.2161948 1.2428249l-18.1803569 31.7216278-12.5507074-12.5121681c-.5294101-.5277845-1.2763353-.7941041-2.0135209-.7101857-.7420554.0839184-1.4099053.4931074-1.8154849 1.1196059l-22.26166157 34.5228387c-.73718565 1.149197-.40557965 2.6731371.74205539 3.4078279 1.15273666.7397768 2.68624049.4043343 3.41832451-.7397767l20.59945747-31.9535016 12.674306 12.6353872c.5442513.54258 1.3108872.8038137 2.0777551.7002449.7668679-.1035687 1.4395874-.5573755 1.8205865-1.2231746l17.497666-30.5231894 25.1359667 50.1321285c.4352619.8629958 1.3060175 1.3611893 2.2161948 1.3611893.3758975 0 .7520268-.0839185 1.1031117-.2614649 1.2220725-.6110094 1.7218004-2.0905629 1.1082134-3.3086516z"/><path d="m27.1944558 10.1312678c-6.7599741 0-12.2641664 5.5041923-12.2641664 12.2641664 0 6.759974 5.5041923 12.2641663 12.2641664 12.2641663 6.759974 0 12.2641663-5.5041923 12.2641663-12.2641663 0-6.7599741-5.5041923-12.2641664-12.2641663-12.2641664zm0 19.6229421c-4.0570883 0-7.3585458-3.3014576-7.3585458-7.3585458s3.3014575-7.3585458 7.3585458-7.3585458c4.0570882 0 7.3585458 3.3014576 7.3585458 7.3585458 0 4.0568583-3.3014576 7.3585458-7.3585458 7.3585458z"/><path d="m96.7061392 10.1312678h-7.42069c-1.3654069 0-2.4736406 1.1049131-2.4736406 2.4662289 0 1.3613159 1.1082337 2.4662289 2.4736406 2.4662289h4.9470494v69.0523286h-79.1539495v-7.3984555c0-1.3613158-1.1082337-2.4662289-2.4736406-2.4662289-1.365407 0-2.4736407 1.1049131-2.4736407 2.4662289v9.8646844c0 1.3613158 1.1082337 2.4662289 2.4736407 2.4662289h84.1012307c1.365407 0 2.4736407-1.1049131 2.4736407-2.4662289v-73.9845552c-.0002319-1.361547-1.1082337-2.4664601-2.4736407-2.4664601z"/><path d="m106.303951 19.729311h-9.8943311c-1.365407 0-2.4736406 1.1049164-2.4736406 2.4662362s1.1082336 2.4662361 2.4736406 2.4662361h7.4206901v69.0522997h-79.1539496v-7.3984772c0-1.3613198-1.1082337-2.4662361-2.4736406-2.4662361-1.365407 0-2.4734088 1.1049163-2.4734088 2.4662361v9.8647133c0 1.3613198 1.1082337 2.4662361 2.4736407 2.4662361h84.1012303c1.365407 0 2.473641-1.1049163 2.473641-2.4662361v-73.9847719c-.000232-1.3613198-1.108465-2.4662362-2.473872-2.4662362z"/></g><path d="m128 220.5c-51.0863394 0-92.5-41.413661-92.5-92.5 0-51.0863394 41.4136606-92.5 92.5-92.5 51.086339 0 92.5 41.4136606 92.5 92.5 0 51.086339-41.413661 92.5-92.5 92.5zm0-5c48.324916 0 87.5-39.175084 87.5-87.5 0-48.3249156-39.175084-87.5-87.5-87.5-48.3249156 0-87.5 39.1750844-87.5 87.5 0 48.324916 39.1750844 87.5 87.5 87.5z"/></g></g></g></svg>