<svg height="128" viewBox="0 0 128 128" width="128" xmlns="http://www.w3.org/2000/svg"><g fill="none" fill-rule="evenodd"><path d="m0 0h128v128h-128z" fill="#000"/><g fill-rule="nonzero"><path d="m64 116.5c-28.9949494 0-52.5-23.5050506-52.5-52.5s23.5050506-52.5 52.5-52.5 52.5 23.5050506 52.5 52.5-23.5050506 52.5-52.5 52.5z" fill="#63a2d3"/><g fill="#fff"><g transform="translate(37 39)"><path d="m43.2874357 0h-42.05061538c-.68270348 0-1.23682032.55245816-1.23682032 1.23311807v36.99238593c0 .6806599.55411684 1.2331181 1.23682032 1.2331181h42.05061538c.6827035 0 1.2368203-.5524582 1.2368203-1.2331181v-36.99238593c0-.68077551-.5541168-1.23311807-1.2368203-1.23311807zm-1.2368203 36.992386h-39.57697476v-34.52626547h39.57697476z"/><path d="m44.3930224 37.6715427-13.6043101-27.1251866c-.2053406-.4068773-.6159059-.66822653-1.0735454-.68059467-.4674949-.01976591-.880611.22690337-1.1080974.62141247l-9.0901785 15.8608139-6.2753537-6.2560841c-.264705-.2638922-.6381676-.397052-1.0067604-.3550928-.3710277.0419592-.7049526.2465537-.9077425.5598029l-11.13083073 17.2614194c-.36859283.5745985-.20278983 1.3365686.37102769 1.703914.57636833.3698883 1.34312025.2021671 1.70916225-.3698884l10.29972879-15.9767508 6.337153 6.3176936c.2721256.27129.6554436.4019068 1.0388775.3501225.3834339-.0517844.7197937-.2786878.9102933-.6115874l8.748833-15.2615947 12.5679833 25.0660643c.2176309.4314979.6530088.6805946 1.1080974.6805946.1879487 0 .3760134-.0419592.5515559-.1307324.6110362-.3055047.8609002-1.0452815.5541066-1.6543258z"/><path d="m13.5972279 5.06563392c-3.3799871 0-6.13208318 2.75209612-6.13208318 6.13208318 0 3.379987 2.75209608 6.1320831 6.13208318 6.1320831 3.379987 0 6.1320831-2.7520961 6.1320831-6.1320831 0-3.37998706-2.7520961-6.13208318-6.1320831-6.13208318zm0 9.81147108c-2.0285441 0-3.67927291-1.6507288-3.67927291-3.6792729 0-2.02854416 1.65072881-3.67927294 3.67927291-3.67927294s3.6792729 1.65072878 3.6792729 3.67927294c0 2.0284291-1.6507288 3.6792729-3.6792729 3.6792729z"/><path d="m48.3530696 5.06563392h-3.710345c-.6827035 0-1.2368203.55245654-1.2368203 1.23311445s.5541168 1.23311445 1.2368203 1.23311445h2.4735247v34.52616428h-39.57697475v-3.6992278c0-.6806579-.55411683-1.2331144-1.23682031-1.2331144-.68270349 0-1.23682032.5524565-1.23682032 1.2331144v4.9323423c0 .6806579.55411683 1.2331144 1.23682032 1.2331144h42.05061536c.6827035 0 1.2368203-.5524565 1.2368203-1.2331144v-36.99227763c-.0001159-.68077351-.5541168-1.23323005-1.2368203-1.23323005z"/><path d="m53.1519753 9.86465552h-4.9471654c-.6827034 0-1.2368203.55245818-1.2368203 1.23311808s.5541169 1.2331181 1.2368203 1.2331181h3.7103451v34.5261498h-39.5769748v-3.6992386c0-.6806599-.5541168-1.2331181-1.2368203-1.2331181s-1.23670438.5524582-1.23670438 1.2331181v4.9323567c0 .6806599.55411688 1.233118 1.23682028 1.233118h42.0506154c.6827035 0 1.2368203-.5524581 1.2368203-1.233118v-36.992386c-.0001159-.6806599-.5542327-1.23311808-1.2369362-1.23311808z"/></g><path d="m64 110.25c-25.5431697 0-46.25-20.7068303-46.25-46.25s20.7068303-46.25 46.25-46.25 46.25 20.7068303 46.25 46.25-20.7068303 46.25-46.25 46.25zm0-2.5c24.1624578 0 43.75-19.5875422 43.75-43.75s-19.5875422-43.75-43.75-43.75-43.75 19.5875422-43.75 43.75 19.5875422 43.75 43.75 43.75z"/></g></g></g></svg>